<svg width="10" height="11" viewBox="0 0 10 11" fill="none" xmlns="http://www.w3.org/2000/svg">
    <path fill-rule="evenodd" clip-rule="evenodd" d="M6.31023e-05 9.62497C6.31023e-05 9.98969 0.149152 10.3394 0.414273 10.5973C0.679521 10.8552 1.03923 11 1.41436 11H8.4857C8.86083 11 9.22052 10.8552 9.48579 10.5973C9.75091 10.3394 9.9 9.98969 9.9 9.62497V6.18748C9.9 5.82289 9.75091 5.47319 9.48579 5.21529C9.22054 4.9574 8.86083 4.81258 8.4857 4.81258H8.13217V3.09383C8.13217 1.98843 7.52558 0.967224 6.54105 0.414524C5.55649 -0.138175 4.3436 -0.138175 3.35895 0.414524C2.37439 0.967224 1.76783 1.98843 1.76783 3.09383V4.81258H1.4143C1.03917 4.81258 0.67948 4.95741 0.41421 5.21529C0.149085 5.47317 0 5.82289 0 6.18748L6.31023e-05 9.62497ZM4.95 8.93754C4.66872 8.93754 4.39891 8.82892 4.2 8.63554C4.00109 8.44215 3.88924 8.17982 3.88924 7.90623C3.88924 7.63276 4.00109 7.37045 4.2 7.17706C4.3989 6.98367 4.66873 6.87505 4.95 6.87505C5.23128 6.87505 5.50109 6.98368 5.7 7.17706C5.89891 7.37044 6.01076 7.63277 6.01076 7.90623C6.01076 8.17982 5.89891 8.44215 5.7 8.63554C5.5011 8.82892 5.23128 8.93754 4.95 8.93754ZM3.5357 3.0938C3.5357 2.60249 3.80527 2.14858 4.2429 1.90293C4.68041 1.65739 5.21956 1.65739 5.65707 1.90293C6.09471 2.14858 6.36427 2.60249 6.36427 3.0938V4.81255H3.53567L3.5357 3.0938Z" fill="black" fill-opacity="0.5"/>
</svg>
