<svg width="14" height="14" viewBox="0 0 14 14" fill="none" xmlns="http://www.w3.org/2000/svg">
    <path fill-rule="evenodd" clip-rule="evenodd" d="M9.93061 5.77998C9.93061 8.07231 8.07231 9.93061 5.77998 9.93061C3.48764 9.93061 1.62934 8.07231 1.62934 5.77998C1.62934 3.48764 3.48764 1.62934 5.77998 1.62934C8.07231 1.62934 9.93061 3.48764 9.93061 5.77998ZM9.09006 10.5189C8.15247 11.175 7.01118 11.56 5.77998 11.56C2.58778 11.56 0 8.97217 0 5.77998C0 2.58778 2.58778 0 5.77998 0C8.97217 0 11.56 2.58778 11.56 5.77998C11.56 7.01033 11.1755 8.1509 10.5202 9.08812L13.7042 12.2721C14.0992 12.6671 14.0992 13.3075 13.7042 13.7025C13.3092 14.0976 12.6687 14.0976 12.2737 13.7025L9.09006 10.5189Z" fill="black" fill-opacity="0.35"/>
</svg>